<?xml version="1.0" standalone="no"?>
<!DOCTYPE svg PUBLIC "-//W3C//DTD SVG 20010904//EN"
 "http://www.w3.org/TR/2001/REC-SVG-20010904/DTD/svg10.dtd">
<svg version="1.0" xmlns="http://www.w3.org/2000/svg"
 width="532.000000pt" height="532.000000pt" viewBox="0 0 532.000000 532.000000"
 preserveAspectRatio="xMidYMid meet">
<metadata>
Created by potrace 1.14, written by Peter Selinger 2001-2017
</metadata>
<g transform="translate(0.000000,532.000000) scale(0.100000,-0.100000)"
fill="#000000" stroke="none">
<path d="M3172 5064 c-54 -46 -141 -161 -214 -284 -92 -156 -248 -451 -248
-470 0 -10 -6 -22 -13 -28 -23 -19 -133 -247 -128 -266 1 -5 -8 -19 -20 -32
-11 -12 -19 -29 -17 -36 3 -7 -10 -35 -29 -63 -18 -27 -33 -56 -33 -63 0 -7
-9 -30 -20 -52 -11 -22 -20 -52 -20 -67 1 -27 1 -27 15 -9 8 11 15 27 15 36 0
9 9 25 20 35 11 10 20 30 20 44 0 16 8 31 20 39 12 7 18 17 14 23 -6 10 54
141 68 147 4 2 8 11 8 20 0 10 9 23 19 29 12 8 17 19 14 31 -3 11 3 28 14 38
10 11 25 36 32 58 7 21 22 47 32 57 10 10 19 26 19 35 0 9 14 32 30 51 17 18
30 42 30 52 0 10 7 24 15 31 8 7 15 21 15 31 0 11 4 19 9 19 5 0 14 12 20 28
12 31 32 64 44 73 4 3 20 28 35 55 15 27 36 64 47 82 11 19 38 65 60 103 46
76 80 119 96 119 6 0 8 -9 3 -22 -6 -22 -6 -22 13 -5 11 9 25 17 32 17 9 0 11
-6 6 -17 -10 -25 -34 -110 -47 -163 -5 -25 -14 -49 -19 -54 -5 -6 -9 -22 -9
-36 0 -15 -3 -30 -7 -34 -10 -10 -55 -168 -70 -248 -3 -16 -8 -28 -12 -28 -3
0 -6 -10 -7 -22 -2 -42 -43 -221 -54 -232 -5 -5 -10 -23 -10 -39 0 -31 -37
-200 -49 -227 -4 -8 -8 -33 -9 -55 -3 -52 -34 -80 -109 -96 -32 -7 -62 -16
-67 -21 -6 -4 -18 -8 -28 -8 -10 0 -67 -16 -126 -35 -120 -38 -172 -49 -172
-37 0 5 7 23 16 41 9 18 13 35 10 38 -10 11 -35 -19 -60 -71 -24 -51 -27 -53
-83 -66 -32 -8 -103 -30 -158 -50 -116 -43 -176 -57 -157 -38 16 16 15 38 -2
38 -15 0 -26 -21 -26 -50 0 -18 -19 -30 -47 -30 -12 0 -13 3 -4 14 15 17 53
173 49 201 -1 11 6 34 15 52 9 18 17 40 17 51 0 10 4 22 9 28 5 5 11 29 14 54
3 25 11 70 17 100 6 30 14 72 17 93 3 20 9 37 13 37 4 0 11 16 14 35 4 19 11
35 16 35 10 0 6 -36 -10 -100 -30 -122 -33 -169 -9 -155 5 4 8 -2 6 -12 -4
-25 -22 -55 -33 -54 -5 0 -8 -13 -8 -29 1 -20 -3 -30 -12 -30 -8 0 -15 -10
-15 -22 -3 -49 -6 -75 -13 -115 -7 -40 8 -103 24 -103 10 0 28 61 40 130 6 36
15 72 19 80 5 9 14 48 21 88 12 68 12 73 -6 88 -19 15 -18 15 2 9 18 -4 22 2
33 47 6 29 16 70 21 91 6 20 14 54 20 75 5 20 17 73 26 116 9 44 20 87 24 95
5 9 17 54 28 101 11 47 24 99 28 115 4 17 8 37 9 45 6 45 39 198 46 215 15 37
29 100 29 133 l0 32 -20 -20 c-37 -37 -56 -20 -41 35 5 20 7 52 4 71 -5 28
-10 35 -27 33 -12 -1 -29 1 -38 5 -9 4 -22 5 -28 1 -12 -8 -77 -143 -86 -182
-4 -15 -15 -45 -26 -66 -10 -21 -16 -42 -13 -47 3 -5 1 -17 -4 -27 -5 -10 -16
-45 -24 -78 -9 -33 -25 -94 -36 -135 -12 -41 -21 -83 -21 -93 0 -9 -4 -25 -9
-35 -5 -9 -21 -69 -35 -132 -15 -63 -32 -133 -39 -155 -6 -22 -12 -47 -13 -55
0 -8 -2 -17 -3 -20 -2 -3 -9 -34 -16 -70 -7 -36 -19 -90 -28 -120 -8 -30 -22
-95 -32 -145 -20 -111 -31 -162 -50 -243 -8 -35 -15 -77 -15 -93 0 -23 -5 -30
-27 -35 -16 -3 -41 -12 -58 -19 -16 -7 -47 -16 -67 -20 -21 -4 -42 -13 -49
-21 -6 -8 -19 -14 -29 -14 -14 0 -73 -18 -195 -61 -16 -6 -115 -39 -220 -74
-268 -90 -429 -150 -482 -180 -25 -14 -51 -25 -58 -25 -8 0 -26 -7 -42 -15
-15 -8 -40 -17 -54 -20 -19 -3 -34 -18 -48 -45 -12 -22 -21 -44 -21 -49 0 -15
116 -12 160 4 24 8 57 18 74 20 17 3 92 25 166 50 74 24 164 53 200 65 68 22
196 59 289 85 30 8 61 21 70 29 9 7 41 19 71 26 30 7 60 17 67 22 7 5 17 7 22
4 5 -4 12 -2 16 4 3 5 15 10 26 10 10 0 27 4 37 9 35 18 93 41 102 41 6 0 10
-7 10 -15 0 -18 -76 -52 -169 -75 -19 -5 -37 -14 -41 -20 -4 -6 -13 -10 -21
-9 -18 4 -59 -10 -59 -20 0 -4 -17 -8 -37 -8 -21 -1 -39 -6 -41 -12 -2 -6 -15
-11 -29 -11 -30 0 -104 -20 -117 -32 -6 -4 -20 -8 -32 -8 -13 0 -26 -4 -29
-10 -3 -5 -17 -10 -30 -10 -13 0 -26 -4 -29 -9 -3 -5 -26 -12 -51 -15 -24 -4
-47 -11 -50 -17 -4 -5 -16 -9 -27 -9 -29 0 -200 -59 -219 -76 -8 -8 -27 -14
-41 -14 -32 0 -88 -19 -109 -36 -8 -8 -28 -14 -43 -14 -18 0 -26 -5 -24 -12 7
-19 83 -21 131 -5 23 8 69 23 102 33 33 9 92 27 130 39 39 12 89 27 113 34 98
26 128 35 137 42 6 4 30 10 55 14 25 4 55 13 67 21 12 8 36 14 52 14 16 0 42
6 58 14 15 8 62 24 103 36 41 13 95 30 120 40 25 10 59 21 76 24 l31 7 -18
-73 c-10 -40 -17 -79 -14 -86 3 -8 2 -19 -2 -25 -8 -12 -32 -128 -37 -178 -1
-14 -6 -30 -9 -36 -4 -6 -12 -40 -17 -75 -17 -107 -20 -121 -22 -123 -23 -20
-178 -85 -272 -115 -254 -81 -553 -201 -570 -229 -4 -6 -18 -11 -31 -11 -13 0
-26 -3 -28 -7 -3 -5 -45 -28 -94 -53 -48 -25 -90 -48 -91 -52 -2 -5 -10 -8
-18 -8 -17 0 -64 -44 -64 -59 0 -20 40 -21 79 -2 52 27 244 101 351 136 47 15
100 33 118 41 18 8 40 14 50 14 29 0 -20 -28 -74 -42 -27 -7 -51 -15 -54 -18
-11 -11 -82 -40 -99 -40 -10 0 -30 -11 -45 -25 -25 -23 -25 -25 -7 -25 12 0
21 4 21 8 0 4 33 14 73 21 39 7 90 21 112 31 22 10 54 20 70 23 29 5 244 65
335 94 51 16 169 43 188 43 9 0 9 -8 -3 -36 -8 -20 -15 -51 -15 -68 0 -18 -4
-36 -9 -41 -5 -6 -11 -35 -14 -65 -3 -30 -15 -100 -26 -155 -12 -55 -25 -129
-30 -165 -14 -93 -48 -296 -61 -355 -6 -27 -15 -90 -20 -140 -5 -49 -16 -128
-24 -175 -38 -210 -44 -269 -51 -495 -4 -136 2 -202 18 -186 6 6 12 25 14 42
2 18 8 38 14 45 6 7 8 22 5 32 -4 13 -1 22 9 26 11 4 15 20 15 56 0 37 4 52
16 57 11 4 13 13 9 34 -4 16 0 52 8 81 8 29 15 76 16 105 0 28 5 63 10 76 6
14 13 54 17 89 3 34 14 99 24 143 9 44 18 89 18 100 1 11 3 29 5 40 2 11 8 44
12 73 4 29 12 55 16 58 5 3 9 17 9 32 1 15 7 38 14 51 8 14 12 31 9 38 -5 14
14 140 24 157 3 5 7 23 8 40 5 60 26 181 36 198 5 10 9 31 9 47 0 29 31 189
48 246 5 17 7 35 5 42 -6 16 34 35 57 28 17 -5 18 -10 9 -28 -9 -16 -9 -22 0
-25 16 -5 13 -30 -5 -40 -11 -6 -15 -17 -12 -30 3 -12 1 -23 -5 -25 -5 -1 -11
-25 -12 -53 -1 -27 -7 -62 -13 -77 -7 -16 -12 -41 -12 -56 0 -16 -7 -45 -15
-64 -17 -41 -21 -132 -5 -122 6 3 10 2 10 -4 0 -6 -8 -15 -19 -20 -12 -7 -22
-30 -30 -73 -6 -35 -15 -82 -20 -106 -6 -30 -4 -45 5 -53 10 -8 9 -14 -7 -30
-25 -25 -25 -64 0 -66 14 -1 22 9 31 42 7 24 9 48 5 54 -3 6 -2 11 3 11 6 0
13 28 17 63 4 34 13 86 21 115 7 29 11 59 7 68 -3 8 2 23 10 32 9 10 17 41 19
72 2 30 6 60 10 65 10 16 13 79 4 93 -5 8 -1 18 10 26 13 10 18 27 18 67 0 30
5 60 12 66 7 7 15 35 19 62 4 28 13 55 21 61 14 12 60 26 129 39 22 4 50 13
62 19 12 7 32 12 46 12 23 0 108 24 137 39 8 4 65 20 125 35 61 15 146 38 191
52 124 37 131 34 95 -54 -11 -26 -27 -83 -36 -127 -9 -44 -21 -96 -25 -115 -5
-19 -14 -57 -20 -85 -7 -27 -18 -68 -25 -90 -7 -22 -23 -85 -35 -140 -12 -55
-31 -135 -41 -179 -11 -43 -19 -89 -19 -102 0 -12 -4 -25 -9 -28 -4 -3 -11
-25 -15 -48 -14 -82 -24 -134 -50 -258 -29 -139 -62 -309 -76 -385 -5 -27 -13
-70 -19 -94 -5 -25 -8 -48 -5 -53 3 -4 0 -16 -5 -26 -13 -25 -23 -192 -13
-206 5 -6 14 -27 21 -46 22 -65 35 -89 54 -94 13 -3 21 3 28 20 5 14 9 29 9
34 0 4 6 10 14 13 20 8 50 71 36 75 -7 3 -8 8 -1 16 6 6 13 43 17 81 8 91 37
179 60 184 14 2 15 -1 9 -20 -4 -13 -9 -42 -12 -64 -2 -22 -7 -47 -10 -55 -3
-8 -6 -54 -7 -102 -1 -81 0 -86 19 -84 39 4 65 36 30 36 -8 0 -15 7 -15 16 0
13 3 14 14 5 11 -9 15 -3 22 36 4 27 8 55 9 63 1 8 4 22 7 30 11 26 28 111 43
215 15 103 39 233 55 295 28 111 71 326 78 390 2 25 11 54 18 65 8 11 14 32
14 47 0 14 5 39 10 53 9 24 30 111 50 210 5 22 16 67 25 100 10 33 25 103 35
155 10 52 27 129 38 170 11 41 23 89 26 105 22 131 33 160 57 163 13 1 40 9
59 17 19 7 69 21 110 30 156 34 296 69 325 80 17 7 55 18 85 24 30 7 73 17 95
22 97 24 112 28 150 39 79 22 121 31 180 40 33 5 101 15 150 24 179 30 281 45
320 48 34 2 40 0 40 -17 0 -15 7 -20 30 -22 17 -1 61 -7 98 -13 67 -12 68 -11
92 14 25 27 52 29 78 7 14 -11 14 -14 0 -31 -13 -15 -21 -17 -36 -8 -17 9 -19
8 -15 -9 5 -18 1 -20 -37 -15 -23 2 -51 -1 -61 -7 -18 -10 -18 -10 3 -11 13 0
24 -8 28 -20 8 -24 49 -36 78 -23 12 6 39 18 60 27 21 9 40 23 43 31 4 8 12
15 20 15 18 0 61 58 70 94 l7 30 -28 -22 c-39 -31 -55 -28 -55 8 0 26 3 30 29
30 l29 0 -5 68 c-6 77 -24 103 -88 132 -102 45 -168 54 -315 40 -63 -6 -140
-13 -170 -16 -62 -5 -123 -15 -290 -49 -63 -14 -144 -29 -180 -35 -36 -6 -78
-16 -95 -22 -16 -5 -57 -17 -90 -25 -33 -8 -81 -21 -106 -29 -26 -8 -116 -32
-202 -53 -85 -22 -163 -44 -173 -49 -27 -14 -164 -46 -170 -39 -3 3 1 34 10
69 24 104 39 197 32 213 -3 8 -1 15 3 15 9 0 38 121 61 251 8 44 18 69 30 77
22 13 226 67 288 76 23 3 50 9 60 14 9 5 31 12 47 15 17 4 62 13 100 22 198
44 411 84 505 94 58 7 123 16 145 21 22 5 75 12 118 15 77 6 78 6 67 -15 -12
-22 -1 -27 18 -8 22 22 85 38 100 26 17 -15 32 5 32 45 0 16 5 37 10 48 16 28
-22 76 -78 101 -35 16 -68 20 -156 21 -134 1 -449 -20 -491 -33 -16 -5 -52
-11 -80 -13 -27 -2 -57 -6 -65 -9 -15 -6 -130 -28 -270 -53 -41 -7 -111 -23
-155 -34 -104 -26 -155 -35 -155 -27 0 3 4 14 10 24 5 9 16 62 24 117 9 55 27
152 41 215 13 63 25 126 25 141 0 14 4 29 10 35 5 5 12 36 16 69 3 33 10 68
15 78 6 9 9 23 7 30 -1 6 1 21 5 32 15 45 54 278 49 301 -9 47 -29 25 -40 -43
-6 -38 -17 -97 -26 -133 -8 -36 -15 -78 -16 -93 0 -15 -6 -30 -14 -33 -9 -3
-12 -12 -9 -21 4 -9 -2 -22 -13 -30 -16 -12 -17 -15 -4 -24 11 -8 12 -12 3
-15 -7 -3 -9 -12 -6 -20 5 -13 -17 -125 -38 -191 -5 -17 -12 -46 -14 -65 -2
-18 -13 -71 -24 -118 -11 -47 -27 -125 -36 -175 -15 -82 -31 -115 -56 -115
-14 0 -21 41 -9 55 6 7 8 24 5 38 -5 18 -2 28 12 35 14 9 15 13 6 23 -10 10
-9 16 3 30 11 12 16 36 16 71 0 29 7 76 17 103 10 28 16 56 14 63 -3 7 -2 20
3 30 4 9 8 23 10 30 1 8 10 29 19 48 9 19 13 39 10 45 -4 5 -1 16 5 24 10 11
10 15 1 15 -7 0 -9 5 -6 10 4 6 10 8 15 5 4 -3 11 3 14 12 4 9 1 20 -6 24 -10
6 -10 11 -1 20 6 6 9 17 7 24 -3 7 -1 16 5 20 6 3 11 21 11 38 0 42 18 107 30
107 6 0 8 15 6 33 -2 17 1 38 7 45 6 7 12 32 13 55 2 23 9 83 15 132 26 194
-20 262 -119 179z m34 -76 c-3 -13 -6 -29 -6 -36 0 -7 -4 -11 -9 -7 -5 3 -12
1 -16 -5 -12 -20 -26 -10 -23 18 2 15 12 32 23 39 31 17 38 15 31 -9z m-956
-202 c0 -3 -4 -8 -10 -11 -5 -3 -10 -1 -10 4 0 6 5 11 10 11 6 0 10 -2 10 -4z
m-120 -505 c0 -11 -4 -23 -10 -26 -6 -4 -10 5 -10 19 0 14 5 26 10 26 6 0 10
-9 10 -19z m30 -65 c0 -20 -16 -36 -36 -36 -15 0 -24 -6 -24 -16 0 -8 -4 -12
-10 -9 -5 3 -10 17 -10 30 0 17 7 25 23 28 33 6 57 8 57 3z m-20 -96 c0 -5 -2
-10 -4 -10 -3 0 -8 5 -11 10 -3 6 -1 10 4 10 6 0 11 -4 11 -10z m2220 -315 c0
-8 -4 -15 -10 -15 -5 0 -10 7 -10 15 0 8 5 15 10 15 6 0 10 -7 10 -15z m60 11
c0 -3 -4 -8 -10 -11 -5 -3 -10 -1 -10 4 0 6 5 11 10 11 6 0 10 -2 10 -4z m70
-12 c0 -11 -6 -14 -22 -9 -39 12 -44 25 -10 25 22 0 32 -5 32 -16z m-180 -4
c0 -5 -13 -10 -29 -10 -16 0 -36 -3 -45 -6 -9 -3 -16 -1 -16 4 0 12 22 19 63
21 15 0 27 -3 27 -9z m-130 -13 c0 -9 -17 -13 -55 -14 -31 0 -61 -6 -68 -11
-14 -12 -46 2 -34 15 7 7 76 18 135 22 12 0 22 -5 22 -12z m-250 -37 c0 -5 -1
-10 -2 -10 -2 0 -30 -5 -63 -11 -33 -5 -71 -12 -85 -14 -14 -2 -38 -9 -55 -16
-16 -7 -53 -13 -80 -14 -28 0 -55 -4 -60 -7 -6 -3 -32 -9 -60 -13 -27 -4 -54
-11 -60 -15 -15 -12 -115 -21 -115 -11 0 5 23 12 50 16 28 4 50 10 50 15 0 4
29 11 65 15 36 3 77 13 93 20 15 7 74 21 132 30 58 9 112 18 120 19 34 8 70 5
70 -4z m-600 -128 c0 -5 -30 -17 -67 -26 -97 -26 -133 -30 -133 -17 0 15 40
30 97 35 25 3 48 7 51 10 9 9 52 7 52 -2z m-1310 -38 c0 -14 -4 -23 -10 -19
-5 3 -10 15 -10 26 0 10 5 19 10 19 6 0 10 -12 10 -26z m1040 -22 c0 -11 -51
-35 -58 -28 -3 3 1 12 8 21 13 16 50 21 50 7z m-1050 -22 c0 -5 -2 -10 -4 -10
-3 0 -8 5 -11 10 -3 6 -1 10 4 10 6 0 11 -4 11 -10z m828 -47 c-2 -10 -14 -19
-28 -21 -34 -5 -177 -47 -220 -65 -19 -8 -60 -20 -90 -26 -30 -7 -64 -16 -75
-20 -57 -23 -119 -41 -123 -36 -8 7 19 35 34 35 7 0 33 6 56 14 24 7 97 30
163 51 66 20 134 42 150 48 17 7 33 11 37 10 4 -2 22 4 40 12 44 19 60 19 56
-2z m196 -85 c-3 -35 -13 -79 -22 -98 -8 -19 -14 -43 -13 -54 2 -10 -2 -30 -8
-45 -6 -14 -12 -36 -14 -48 -2 -12 -6 -26 -10 -29 -4 -4 -7 -18 -7 -31 0 -12
-5 -23 -10 -23 -6 0 -5 -8 2 -19 9 -16 8 -27 -5 -58 -14 -33 -25 -93 -32 -168
-2 -18 -27 -32 -67 -34 -12 -1 -15 5 -11 22 3 12 9 27 14 32 4 6 13 47 19 92
7 46 16 80 21 78 4 -3 7 5 7 17 -3 50 2 78 15 76 8 -2 12 11 12 42 0 25 4 52
10 60 5 8 10 40 10 71 1 32 6 63 12 71 6 7 13 29 15 48 2 25 10 38 28 47 39
20 41 17 34 -49z m-221 -22 c3 -8 2 -29 -3 -48 -48 -180 -112 -438 -115 -463
-7 -58 -30 -118 -49 -130 -11 -7 -39 -17 -61 -21 -22 -4 -54 -13 -70 -20 -17
-7 -73 -24 -125 -39 -94 -25 -276 -80 -315 -95 -55 -20 -89 -29 -93 -25 -5 5
102 55 185 87 29 10 55 24 58 29 4 5 14 9 24 9 10 0 24 7 31 15 7 8 8 15 2 15
-16 0 -240 -75 -327 -110 -131 -52 -125 -54 -109 27 20 101 18 113 -10 113
-21 0 -26 -7 -35 -50 -6 -28 -11 -69 -11 -91 0 -33 -6 -47 -31 -70 -26 -24
-49 -37 -49 -26 0 1 5 29 10 62 6 33 13 83 16 110 3 28 10 58 15 67 5 9 9 33
9 53 0 23 5 38 15 41 10 4 13 13 9 26 -3 10 -1 24 4 31 8 10 13 37 26 132 8
59 42 89 73 63 17 -14 16 -28 -2 -28 -10 0 -15 -10 -15 -31 0 -17 -5 -39 -11
-50 -13 -25 -3 -62 11 -39 12 20 20 9 13 -19 -3 -13 -11 -20 -19 -17 -8 3 -14
-1 -14 -8 0 -7 -7 -27 -16 -44 -21 -43 -15 -87 11 -87 24 0 44 49 44 112 1 23
5 44 10 47 9 6 12 23 27 133 7 58 11 63 69 82 22 7 49 16 60 21 32 14 144 50
155 50 13 0 8 -30 -12 -60 -22 -33 -35 -95 -18 -85 15 9 60 104 60 127 0 24
47 57 92 64 21 4 41 11 44 15 3 5 13 9 23 9 10 0 32 7 47 15 16 8 36 15 44 15
8 0 53 14 100 30 47 16 92 30 101 30 9 0 22 6 29 14 6 8 26 17 43 19 18 2 35
5 38 5 4 1 9 -4 12 -12z m-539 -67 c-9 -16 -99 -54 -164 -69 -30 -8 -62 -20
-71 -27 -15 -13 -69 -18 -69 -7 0 13 47 43 68 44 13 0 32 5 43 11 21 11 165
56 187 58 7 0 10 -4 6 -10z m-374 -122 c0 -14 -19 -37 -31 -37 -12 0 -17 39
-5 44 21 9 36 6 36 -7z m-42 -394 c-19 -23 -26 -14 -15 17 10 25 13 27 18 13
4 -10 2 -24 -3 -30z m702 -267 c0 -2 -7 -6 -15 -10 -8 -3 -15 -1 -15 4 0 6 7
10 15 10 8 0 15 -2 15 -4z m266 -41 c3 -14 2 -31 -3 -38 -5 -6 -15 -32 -22
-57 -7 -25 -17 -50 -23 -57 -5 -7 -7 -22 -3 -34 4 -13 2 -24 -5 -29 -7 -5 -13
-23 -12 -41 0 -18 -4 -39 -10 -46 -6 -8 -8 -16 -5 -19 3 -3 -4 -26 -14 -50
-11 -25 -17 -53 -14 -64 3 -10 -1 -30 -9 -43 -9 -13 -17 -37 -19 -53 -4 -30
-11 -52 -29 -91 -6 -11 -7 -26 -4 -32 4 -6 2 -11 -4 -11 -7 0 -9 -7 -6 -16 4
-9 0 -26 -7 -38 -7 -12 -13 -42 -13 -68 1 -27 -2 -48 -6 -48 -4 0 -10 -17 -14
-37 -4 -21 -10 -42 -14 -48 -5 -5 -8 -21 -8 -35 0 -14 -5 -44 -11 -68 -6 -24
-9 -47 -6 -52 3 -4 0 -10 -6 -12 -6 -2 -13 -32 -15 -67 -3 -36 -12 -70 -20
-78 -16 -17 -18 -33 -4 -33 5 0 6 -8 3 -17 -8 -21 -44 -63 -54 -63 -12 0 -4
42 15 82 10 20 15 41 12 46 -3 5 1 36 10 68 9 33 18 88 20 123 2 35 9 69 14
76 5 6 12 31 16 55 4 25 10 47 14 50 9 7 31 120 25 131 -3 4 3 13 14 18 13 7
17 17 14 32 -3 12 0 24 7 29 9 6 9 12 0 29 -9 17 -9 26 0 36 7 8 9 19 5 25 -3
5 1 13 9 16 9 3 13 10 10 15 -3 5 0 26 7 47 15 43 19 62 25 117 11 103 18 132
36 157 10 15 23 58 29 95 16 116 19 123 49 123 13 0 22 -9 26 -25z m-516 -25
c0 -5 -4 -10 -10 -10 -5 0 -10 5 -10 10 0 6 5 10 10 10 6 0 10 -4 10 -10z
m-160 -60 c0 -5 -4 -10 -9 -10 -6 0 -13 5 -16 10 -3 6 1 10 9 10 9 0 16 -4 16
-10z m-75 -17 c-11 -3 -23 -10 -26 -15 -4 -6 -12 -7 -18 -4 -19 12 -1 26 32
25 22 -1 25 -3 12 -6z m-90 -33 c-3 -5 -12 -10 -20 -10 -8 0 -17 5 -20 10 -4
6 5 10 20 10 15 0 24 -4 20 -10z m-105 -20 c0 -5 -4 -10 -10 -10 -5 0 -10 5
-10 10 0 6 5 10 10 10 6 0 10 -4 10 -10z m-120 -40 c0 -9 -42 -22 -48 -15 -3
3 1 11 7 19 12 14 41 12 41 -4z m-230 -69 c0 -11 -25 -21 -56 -21 -25 0 -33
15 -11 23 21 9 67 7 67 -2z m-92 -28 c-2 -12 -16 -20 -41 -24 -31 -5 -37 -3
-35 10 3 14 33 27 66 30 8 1 12 -7 10 -16z m-98 -28 c0 -11 -11 -15 -39 -15
-24 0 -48 -8 -65 -21 -15 -11 -33 -18 -41 -15 -29 11 -14 25 43 41 31 9 62 18
67 20 22 8 35 4 35 -10z m-240 -65 c0 -10 -30 -25 -63 -32 -29 -6 -17 17 16
29 41 15 47 15 47 3z m590 -195 c0 -8 -4 -15 -10 -15 -5 0 -7 7 -4 15 4 8 8
15 10 15 2 0 4 -7 4 -15z m796 -790 c8 -20 -19 -56 -35 -46 -8 6 -9 11 -3 15
6 3 8 15 5 26 -6 24 24 29 33 5z m-16 -76 c0 -17 -29 -195 -42 -261 -12 -56
-30 -74 -42 -42 -3 8 -2 23 3 33 6 10 13 42 17 72 4 30 10 59 15 64 4 6 6 28
4 50 -2 22 3 52 11 67 15 28 34 38 34 17z"/>
<path d="M2160 3025 c0 -9 -7 -26 -16 -39 -9 -15 -11 -26 -5 -30 11 -7 25 15
35 57 4 16 2 27 -4 27 -5 0 -10 -7 -10 -15z"/>
<path d="M2112 2898 c-11 -24 -23 -63 -26 -88 -5 -39 -5 -42 5 -20 26 57 47
106 53 128 12 38 -10 24 -32 -20z"/>
<path d="M2056 2715 c4 -8 8 -15 10 -15 2 0 4 7 4 15 0 8 -4 15 -10 15 -5 0
-7 -7 -4 -15z"/>
<path d="M3337 4934 c-3 -19 -3 -42 0 -50 11 -29 28 -7 31 39 2 35 0 47 -11
47 -9 0 -17 -14 -20 -36z"/>
<path d="M3104 4855 c-24 -37 -12 -40 15 -5 12 17 17 30 12 30 -6 0 -18 -11
-27 -25z"/>
<path d="M2996 4674 c-10 -25 1 -29 14 -5 6 12 7 21 1 21 -5 0 -12 -7 -15 -16z"/>
<path d="M2947 4594 c-4 -4 -7 -14 -7 -23 0 -11 3 -12 11 -4 6 6 10 16 7 23
-2 6 -7 8 -11 4z"/>
<path d="M1852 2080 c0 -14 2 -19 5 -12 2 6 2 18 0 25 -3 6 -5 1 -5 -13z"/>
<path d="M1821 2022 c-7 -13 -11 -33 -8 -45 3 -20 4 -20 16 7 16 39 10 70 -8
38z"/>
<path d="M610 1920 c-20 -13 -10 -19 22 -13 15 3 25 9 22 14 -7 12 -25 11 -44
-1z"/>
<path d="M1791 1894 c0 -11 3 -14 6 -6 3 7 2 16 -1 19 -3 4 -6 -2 -5 -13z"/>
<path d="M530 1880 c0 -5 5 -10 10 -10 6 0 10 5 10 10 0 6 -4 10 -10 10 -5 0
-10 -4 -10 -10z"/>
<path d="M1767 1844 c-4 -4 -7 -14 -7 -23 0 -11 3 -12 11 -4 6 6 10 16 7 23
-2 6 -7 8 -11 4z"/>
<path d="M1747 1784 c-4 -4 -7 -17 -7 -28 0 -19 1 -19 17 -3 12 11 14 20 7 27
-6 6 -13 7 -17 4z"/>
<path d="M1720 1684 c0 -8 5 -12 10 -9 6 3 10 10 10 16 0 5 -4 9 -10 9 -5 0
-10 -7 -10 -16z"/>
<path d="M1697 1633 c-10 -9 -9 -23 2 -23 5 0 11 7 15 15 5 15 -5 20 -17 8z"/>
<path d="M1656 1494 c-3 -9 -6 -23 -6 -32 1 -12 5 -10 15 8 8 14 14 28 15 33
0 13 -18 7 -24 -9z"/>
<path d="M1626 1418 c-3 -13 -6 -27 -6 -33 1 -15 30 27 30 42 0 22 -17 15 -24
-9z"/>
<path d="M1571 1315 c-26 -13 -55 -88 -46 -114 3 -8 2 -17 -3 -20 -13 -9 -23
-99 -12 -106 6 -4 18 1 27 10 12 12 13 19 4 24 -8 5 -7 16 6 42 10 19 23 49
29 67 11 29 10 35 -7 45 -27 17 -24 30 5 23 18 -4 25 -1 29 14 7 26 -3 31 -32
15z"/>
<path d="M1495 1039 c-4 -6 -5 -13 -2 -16 7 -7 27 6 27 18 0 12 -17 12 -25 -2z"/>
<path d="M1484 983 c-3 -10 -10 -29 -14 -43 -16 -48 -20 -80 -11 -80 11 0 16
15 26 73 3 21 13 41 21 44 19 7 18 23 -1 23 -9 0 -18 -8 -21 -17z"/>
<path d="M1435 690 c-3 -5 -1 -10 4 -10 6 0 11 5 11 10 0 6 -2 10 -4 10 -3 0
-8 -4 -11 -10z"/>
<path d="M1417 590 c-3 -11 -1 -23 4 -26 5 -3 9 6 9 20 0 31 -6 34 -13 6z"/>
<path d="M1405 540 c-3 -5 -1 -10 4 -10 6 0 11 5 11 10 0 6 -2 10 -4 10 -3 0
-8 -4 -11 -10z"/>
</g>
</svg>
